<svg width="14" height="14" viewBox="0 0 14 14" fill="none" xmlns="http://www.w3.org/2000/svg">
<path d="M11.0833 2.33334H2.91663C2.4525 2.33334 2.00738 2.51772 1.67919 2.84591C1.351 3.1741 1.16663 3.61921 1.16663 4.08334V9.91668C1.16663 10.3808 1.351 10.8259 1.67919 11.1541C2.00738 11.4823 2.4525 11.6667 2.91663 11.6667H11.0833C11.5474 11.6667 11.9925 11.4823 12.3207 11.1541C12.6489 10.8259 12.8333 10.3808 12.8333 9.91668V4.08334C12.8333 3.61921 12.6489 3.1741 12.3207 2.84591C11.9925 2.51772 11.5474 2.33334 11.0833 2.33334ZM2.91663 3.50001H11.0833C11.238 3.50001 11.3864 3.56147 11.4958 3.67086C11.6052 3.78026 11.6666 3.92863 11.6666 4.08334L6.99996 6.93001L2.33329 4.08334C2.33329 3.92863 2.39475 3.78026 2.50415 3.67086C2.61354 3.56147 2.76192 3.50001 2.91663 3.50001ZM11.6666 9.91668C11.6666 10.0714 11.6052 10.2198 11.4958 10.3292C11.3864 10.4386 11.238 10.5 11.0833 10.5H2.91663C2.76192 10.5 2.61354 10.4386 2.50415 10.3292C2.39475 10.2198 2.33329 10.0714 2.33329 9.91668V5.41334L6.69663 8.07918C6.7853 8.13038 6.8859 8.15733 6.98829 8.15733C7.09069 8.15733 7.19128 8.13038 7.27996 8.07918L11.6666 5.41334V9.91668Z" fill="black" fill-opacity="0.38"/>
</svg>
