<svg width="16" height="16" viewBox="0 0 16 16" fill="none" xmlns="http://www.w3.org/2000/svg">
<path d="M11.4972 6.19389C11.3723 6.06972 11.2033 6.00003 11.0272 6.00003C10.8511 6.00003 10.6821 6.06972 10.5572 6.19389L8.16389 8.55389L5.80389 6.19389C5.67898 6.06972 5.51001 6.00003 5.33389 6.00003C5.15776 6.00003 4.98879 6.06972 4.86389 6.19389C4.8014 6.25587 4.7518 6.3296 4.71796 6.41084C4.68411 6.49208 4.66669 6.57922 4.66669 6.66723C4.66669 6.75523 4.68411 6.84237 4.71796 6.92361C4.7518 7.00485 4.8014 7.07858 4.86389 7.14056L7.69055 9.96723C7.75253 10.0297 7.82626 10.0793 7.9075 10.1132C7.98874 10.147 8.07588 10.1644 8.16389 10.1644C8.25189 10.1644 8.33903 10.147 8.42027 10.1132C8.50151 10.0793 8.57524 10.0297 8.63722 9.96723L11.4972 7.14056C11.5597 7.07858 11.6093 7.00485 11.6431 6.92361C11.677 6.84237 11.6944 6.75523 11.6944 6.66723C11.6944 6.57922 11.677 6.49208 11.6431 6.41084C11.6093 6.3296 11.5597 6.25587 11.4972 6.19389Z" fill="black" fill-opacity="0.38"/>
</svg>
